<?xml version="1.0" encoding="UTF-8"?>
<!DOCTYPE svg PUBLIC "-//W3C//DTD SVG 1.1//EN" "http://www.w3.org/Graphics/SVG/1.1/DTD/svg11.dtd">
<!-- Creator: CorelDRAW 2021 (64-Bit) -->
<svg xmlns="http://www.w3.org/2000/svg" xml:space="preserve" width="104.85mm" height="18.5246mm" version="1.1" style="shape-rendering:geometricPrecision; text-rendering:geometricPrecision; image-rendering:optimizeQuality; fill-rule:evenodd; clip-rule:evenodd"
viewBox="0 0 171.0288 30.217"
 xmlns:xlink="http://www.w3.org/1999/xlink"
 xmlns:xodm="http://www.corel.com/coreldraw/odm/2003">
 <defs>
  <style type="text/css">
   <![CDATA[
    .fil0 {fill:white;fill-rule:nonzero}
   ]]>
  </style>
 </defs>
 <g id="Capa_x0020_1">
  <metadata id="CorelCorpID_0Corel-Layer"/>
  <path class="fil0" d="M63.4311 15.5556c0.1422,-1.1541 0.5548,-3.2093 1.7498,-5.1048 1.4087,-2.2346 3.8801,-4.2375 8.2132,-4.2998 0.2328,-0.0222 1.9669,-0.1535 3.9918,0.621 1.9847,0.7592 4.2722,2.3807 5.7607,5.806 0.9232,-0.266 2.3633,-0.558 3.8799,-0.3926 1.8458,0.2016 3.7928,1.059 5.0863,3.3871 1.4814,0.0586 2.7368,0.4231 3.7684,1.0014 1.2611,0.7068 2.1855,1.7276 2.7807,2.8981 0.236,0.4631 0.4202,0.9559 0.5528,1.4664 0.1338,0.5146 0.2124,1.0433 0.2367,1.5743 0.0238,0.5212 -0.0057,1.0472 -0.0878,1.5664l0 0.0024c-0.0819,0.5172 -0.2153,1.025 -0.3995,1.5118 -0.4814,1.2712 -1.3054,2.4172 -2.4621,3.2536 -1.0412,0.753 -2.3473,1.2534 -3.9085,1.3658l-29.1102 0.0018 0 0.0024 -0.0718 -0.0034 -0.0442 -0.0044c-1.3322,-0.0724 -2.504,-0.5 -3.4806,-1.1678 -1.064,-0.7278 -1.8936,-1.741 -2.4437,-2.8901 -0.2377,-0.4969 -0.423,-1.0183 -0.5517,-1.5516 -0.1285,-0.5324 -0.2018,-1.08 -0.216,-1.6297 -0.0144,-0.5618 0.0331,-1.1258 0.1463,-1.6785 0.1108,-0.5406 0.2835,-1.0692 0.5215,-1.5736 0.527,-1.1172 1.3699,-2.1214 2.565,-2.8826 0.9505,-0.6053 2.1194,-1.0544 3.5229,-1.2797zm46.5679 5.5764l1.2705 0 2.4308 -8.2864 0.0276 0 2.4169 8.2864 1.2568 0 2.8725 -9.778 -1.2152 0 -2.2651 8.1207 -0.0276 0 -2.3892 -8.1207 -1.2983 0 -2.4031 8.1207 -0.0277 0 -2.2235 -8.1207 -1.2844 0 2.8588 9.778zm11.5734 0l6.3944 0 0 -1.0772 -5.2343 0 0 -3.4803 4.6542 0 0 -1.0772 -4.6542 0 0 -3.066 4.9857 0 0 -1.0772 -6.1458 0 0 9.778zm7.0573 0l1.312 0 1.0082 -2.4031 4.889 0 0.9944 2.4031 1.3536 0 -4.1571 -9.778 -1.0911 0 -4.3089 9.778zm6.7673 -3.4803l-3.9913 0 2.0302 -4.8061 0.0276 0 1.9336 4.8061zm9.3775 -6.2977l-7.6237 0 0 1.0772 3.2317 0 0 8.7007 1.1601 0 0 -8.7007 3.2319 0 0 -1.0772zm1.3673 9.778l1.1601 0 0 -4.5575 5.2204 0 0 4.5575 1.1601 0 0 -9.778 -1.1601 0 0 4.1432 -5.2204 0 0 -4.1432 -1.1601 0 0 9.778zm9.9714 0l6.3944 0 0 -1.0772 -5.2343 0 0 -3.4803 4.6542 0 0 -1.0772 -4.6542 0 0 -3.066 4.9857 0 0 -1.0772 -6.1458 0 0 9.778zm8.1898 0l1.1601 0 0 -4.3918 1.4916 0 2.6516 4.3918 1.4226 0 -2.7761 -4.5022c1.5193,-0.2349 2.4447,-1.1601 2.4447,-2.5826 0,-2.4169 -2.0026,-2.6931 -3.8948,-2.6931l-2.4996 0 0 9.778zm1.1601 -8.7007l1.6295 0c1.1325,0 2.3616,0.2072 2.3616,1.6158 0,1.6158 -1.671,1.6158 -2.9554,1.6158l-1.0358 0 0 -3.2317zm-157.8394 -1.0772l-7.6237 0 0 1.0772 3.2317 0 0 8.7007 1.1601 0 0 -8.7007 3.2319 0 0 -1.0772zm1.3673 9.778l6.3944 0 0 -1.0772 -5.2343 0 0 -3.4803 4.6542 0 0 -1.0772 -4.6542 0 0 -3.066 4.9857 0 0 -1.0772 -6.1458 0 0 9.778zm8.1898 0l5.6348 0 0 -1.0772 -4.4747 0 0 -8.7007 -1.1601 0 0 9.778zm14.7637 -8.4936c-0.8286,-1.0772 -2.1267,-1.533 -3.4527,-1.533 -2.9002,0 -4.9718,2.2649 -4.9718,5.1376 0,2.9692 2.1683,5.1376 4.9718,5.1376 1.5607,0 2.8312,-0.5386 3.7013,-1.7126l-0.8701 -0.7319c-0.6905,0.8839 -1.6434,1.3673 -2.8312,1.3673 -2.1959,0 -3.7289,-1.7954 -3.7289,-4.0603 0,-2.1408 1.5468,-4.0603 3.7289,-4.0603 0.9392,0 1.8646,0.4005 2.4447,1.1877l1.0081 -0.7319zm0.7321 8.4936l1.312 0 1.0082 -2.4031 4.889 0 0.9944 2.4031 1.3536 0 -4.1571 -9.778 -1.0911 0 -4.3089 9.778zm6.7673 -3.4803l-3.9913 0 2.0302 -4.8061 0.0276 0 1.9336 4.8061zm4.0881 3.4803l1.1601 0 0 -4.3918 1.4916 0 2.6516 4.3918 1.4226 0 -2.7761 -4.5022c1.5193,-0.2349 2.4447,-1.1601 2.4447,-2.5826 0,-2.4169 -2.0026,-2.6931 -3.8948,-2.6931l-2.4996 0 0 9.778zm1.1601 -8.7007l1.6295 0c1.1325,0 2.3616,0.2072 2.3616,1.6158 0,1.6158 -1.671,1.6158 -2.9554,1.6158l-1.0358 0 0 -3.2317zm51.2687 0.9492c-0.1417,0.2602 -0.3753,0.4386 -0.6386,0.5163 -0.2625,0.0772 -0.5551,0.054 -0.8156,-0.0876 -0.2603,-0.1417 -0.4386,-0.3755 -0.5163,-0.6386 -0.0773,-0.2625 -0.0542,-0.5551 0.0876,-0.8156 0.1342,-0.2453 0.2559,-0.5052 0.3631,-0.7779 0.1031,-0.2616 0.1917,-0.536 0.2644,-0.8215 0.0703,-0.2755 0.124,-0.5575 0.1597,-0.844 0.0352,-0.2822 0.0535,-0.5714 0.0535,-0.8665 0,-0.9378 -0.1851,-1.8287 -0.5205,-2.6384 -0.3478,-0.8394 -0.8603,-1.5979 -1.4982,-2.2359 -0.638,-0.638 -1.3966,-1.1506 -2.236,-1.4982 -0.8097,-0.3355 -1.7007,-0.5205 -2.6383,-0.5205 -0.6052,0 -1.186,0.0752 -1.7336,0.2166 -0.5708,0.1475 -1.1125,0.3662 -1.6149,0.6456 -0.5119,0.2851 -0.9854,0.6353 -1.409,1.0394 -0.4217,0.4022 -0.7936,0.8595 -1.1048,1.3607 -0.1559,0.2509 -0.4001,0.4153 -0.6683,0.4783 -0.2674,0.0628 -0.559,0.023 -0.811,-0.1338 -0.2509,-0.1559 -0.4153,-0.4001 -0.4784,-0.6681 -0.0628,-0.2674 -0.023,-0.559 0.1338,-0.8112 0.4049,-0.6518 0.8923,-1.25 1.448,-1.7796 0.5522,-0.5262 1.1728,-0.9844 1.8475,-1.3601 0.6611,-0.3678 1.3728,-0.6556 2.1218,-0.8497 0.7309,-0.1894 1.4916,-0.2902 2.269,-0.2902 1.2209,0 2.3887,0.2442 3.4566,0.6866 1.1107,0.4602 2.1076,1.1316 2.9389,1.963 0.8312,0.8311 1.5028,1.8281 1.963,2.9387 0.4422,1.0679 0.6866,2.2357 0.6866,3.4568 0,0.3806 -0.0241,0.7575 -0.0705,1.1288 -0.0473,0.3788 -0.1179,0.7499 -0.2103,1.1112 -0.0933,0.3664 -0.2098,0.7247 -0.3471,1.0725 -0.1352,0.3425 -0.2967,0.6843 -0.482,1.0229zm-32.4644 15.6093l0.0033 0 -0.0062 -0.001 0.0029 0.001zm-0.0029 -0.0007c0.0104,0.0003 -0.0055,-0.0008 -0.01,-0.0015l0 0.001 0.01 0.0005zm9.992 -20.6961c-3.7995,0.0349 -5.7834,1.9318 -6.819,3.8871 -1.0306,1.9457 -1.1501,3.9391 -1.1635,4.3003 0.0096,0.2799 -0.0912,0.542 -0.2651,0.7417 -0.1773,0.2032 -0.4308,0.3408 -0.7202,0.3651 -1.3612,0.1174 -2.4522,0.4649 -3.2996,0.9665 -0.9174,0.5433 -1.5513,1.2707 -1.9331,2.0806 -0.1661,0.3522 -0.2863,0.7197 -0.3628,1.0939 -0.0799,0.3913 -0.1134,0.7918 -0.1031,1.1916 0.0101,0.3951 0.0633,0.7908 0.1569,1.178 0.0943,0.3905 0.2287,0.7701 0.4005,1.1289 0.3882,0.811 0.9699,1.5245 1.7127,2.0344 0.6765,0.4641 1.4886,0.76 2.4117,0.8066l28.9618 -0.0002c1.1211,-0.0842 2.0486,-0.437 2.779,-0.9645 0.804,-0.5809 1.3779,-1.3788 1.7136,-2.2659 0.1347,-0.3559 0.2315,-0.7223 0.2897,-1.0908 0.0592,-0.3752 0.0804,-0.7583 0.063,-1.141 -0.0171,-0.3788 -0.0734,-0.7557 -0.1687,-1.1223 -0.0917,-0.353 -0.2227,-0.7011 -0.3931,-1.0363l-0.0639 -0.1259c-0.428,-0.7857 -1.0831,-1.4664 -1.9718,-1.9343 -0.8541,-0.4496 -1.9276,-0.7053 -3.2278,-0.6763 -0.2135,0.0072 -0.423,-0.0498 -0.6008,-0.16l0.0008 -0.0011c-0.1737,-0.108 -0.3184,-0.2662 -0.4089,-0.4647 -1.0009,-2.1987 -2.7714,-2.7808 -4.3275,-2.798 -1.6326,-0.0179 -3.0374,0.5556 -3.1886,0.6194 -0.0235,0.0114 -0.0514,0.0214 -0.0758,0.0316 -0.2783,0.0982 -0.5716,0.0736 -0.8202,-0.0452 -0.2488,-0.1192 -0.4518,-0.3321 -0.5499,-0.6104 -2.2735,-6.4296 -7.5612,-6.028 -7.9049,-5.9951l-0.0181 0.0026c-0.0344,0.0015 -0.069,0.0036 -0.1034,0.0036z"/>
 </g>
</svg>
