<?xml version="1.0" encoding="UTF-8"?>
<!DOCTYPE svg PUBLIC "-//W3C//DTD SVG 1.1//EN" "http://www.w3.org/Graphics/SVG/1.1/DTD/svg11.dtd">
<!-- Creator: CorelDRAW 2021 (64-Bit) -->
<svg xmlns="http://www.w3.org/2000/svg" xml:space="preserve" width="26.2304mm" height="18.5246mm" version="1.1" style="shape-rendering:geometricPrecision; text-rendering:geometricPrecision; image-rendering:optimizeQuality; fill-rule:evenodd; clip-rule:evenodd"
viewBox="0 0 132.1008 93.2931"
 xmlns:xlink="http://www.w3.org/1999/xlink"
 xmlns:xodm="http://www.corel.com/coreldraw/odm/2003">
 <defs>
  <style type="text/css">
   <![CDATA[
    .fil0 {fill:white;fill-rule:nonzero}
    .fil1 {fill:white;fill-rule:nonzero}
   ]]>
  </style>
 </defs>
 <g id="Capa_x0020_1">
  <metadata id="CorelCorpID_0Corel-Layer"/>
  <path class="fil0" d="M20.8659 48.027c0.4392,-3.5631 1.7128,-9.9087 5.4023,-15.7607 4.3492,-6.8991 11.9795,-13.083 25.3576,-13.2754 0.7187,-0.0685 6.0726,-0.4739 12.3245,1.9173 6.1275,2.3438 13.1902,7.3503 17.7857,17.9258 2.8505,-0.8214 7.2964,-1.7229 11.979,-1.2122 5.6989,0.6225 11.7101,3.2695 15.7038,10.4576 4.5739,0.1808 8.4497,1.3064 11.6346,3.0917 3.8935,2.1822 6.7475,5.3338 8.5852,8.9478 0.7287,1.4298 1.2973,2.9512 1.7068,4.5275 0.413,1.5889 0.6557,3.2211 0.7307,4.8604 0.0735,1.6091 -0.0176,3.2332 -0.2709,4.8362l0 0.0076c-0.2528,1.597 -0.6648,3.1647 -1.2334,4.6675 -1.4862,3.9247 -4.0304,7.4631 -7.6016,10.0451 -3.2146,2.3247 -7.2471,3.8698 -12.0672,4.2168l-89.876 0.0055 0 0.0076 -0.2216 -0.0106 -0.1365 -0.0136c-4.113,-0.2236 -7.731,-1.5436 -10.7462,-3.6054 -3.2851,-2.2471 -5.8465,-5.3751 -7.5447,-8.9231 -0.7338,-1.534 -1.3059,-3.1441 -1.7032,-4.7904 -0.3969,-1.6438 -0.623,-3.3344 -0.6668,-5.0316 -0.0443,-1.7345 0.1022,-3.476 0.4517,-5.1822 0.342,-1.669 0.8753,-3.3012 1.6101,-4.8584 1.6272,-3.4493 4.2294,-6.5495 7.9194,-8.8999 2.9346,-1.8689 6.5435,-3.2554 10.8766,-3.9509zm0.2009 41.4769l0.0101 0 -0.0191 -0.003 0.0091 0.003zm-0.0091 -0.002c0.0322,0.001 -0.0171,-0.0025 -0.0307,-0.0045l0 0.003 0.0307 0.0015zm30.8496 -63.8979c-11.7308,0.1078 -17.8557,5.9643 -21.0532,12.0012 -3.1819,6.0071 -3.551,12.1619 -3.5923,13.2769 0.0297,0.8642 -0.2815,1.6735 -0.8184,2.2899 -0.5474,0.6275 -1.3301,1.0521 -2.2235,1.1271 -4.2027,0.3626 -7.5709,1.4353 -10.1872,2.9839 -2.8323,1.6775 -4.7894,3.9232 -5.9684,6.4236 -0.5127,1.0873 -0.8838,2.222 -1.12,3.3773 -0.2468,1.2082 -0.35,2.4446 -0.3183,3.6789 0.0312,1.2198 0.1954,2.4415 0.4845,3.6371 0.2911,1.2057 0.7061,2.3776 1.2364,3.4855 1.1986,2.504 2.9945,4.7068 5.288,6.2811 2.0885,1.4328 4.596,2.3464 7.446,2.4904l89.4177 -0.0005c3.4614,-0.2599 6.3249,-1.3492 8.5801,-2.9779 2.4823,-1.7934 4.2541,-4.2571 5.2905,-6.9957 0.416,-1.0989 0.7146,-2.23 0.8944,-3.3677 0.1828,-1.1583 0.2483,-2.3413 0.1944,-3.5228 -0.0529,-1.1694 -0.2266,-2.3333 -0.5207,-3.4649 -0.283,-1.0898 -0.6874,-2.1645 -1.2137,-3.1995l-0.1974 -0.3888c-1.3215,-2.4259 -3.344,-4.5275 -6.0877,-5.9719 -2.6369,-1.388 -5.9512,-2.1776 -9.9656,-2.088 -0.6592,0.0222 -1.3059,-0.1536 -1.8548,-0.494l0.0025 -0.0035c-0.5364,-0.3334 -0.9831,-0.8219 -1.2626,-1.4348 -3.0902,-6.7883 -8.5565,-8.5857 -13.361,-8.6385 -5.0407,-0.0554 -9.3779,1.7153 -9.8447,1.9122 -0.0725,0.0353 -0.1586,0.066 -0.2342,0.0977 -0.8592,0.3032 -1.7647,0.2271 -2.5322,-0.1395 -0.768,-0.3681 -1.395,-1.0254 -1.6977,-1.8845 -7.0194,-19.8511 -23.3447,-18.6112 -24.4058,-18.5094l-0.0559 0.0081c-0.1063,0.0045 -0.213,0.0111 -0.3193,0.0111z"/>
  <path class="fil1" d="M121.2987 41.3112c-0.4376,0.8033 -1.1588,1.3542 -1.9717,1.5939 -0.8103,0.2382 -1.7138,0.1667 -2.5181,-0.2704 -0.8038,-0.4376 -1.3542,-1.1593 -1.5939,-1.9717 -0.2387,-0.8103 -0.1672,-1.7138 0.2704,-2.5181 0.4145,-0.7574 0.7902,-1.5597 1.1211,-2.4018 0.3183,-0.8078 0.5918,-1.6549 0.8164,-2.5362 0.2171,-0.8506 0.3827,-1.7214 0.493,-2.6057 0.1088,-0.8713 0.1652,-1.7642 0.1652,-2.6752 0,-2.8953 -0.5716,-5.6461 -1.607,-8.146 -1.0737,-2.5916 -2.6561,-4.9334 -4.6257,-6.9031 -1.9696,-1.9696 -4.312,-3.5525 -6.9036,-4.6257 -2.5,-1.0359 -5.2507,-1.607 -8.1455,-1.607 -1.8684,0 -3.6618,0.2322 -5.3524,0.6688 -1.7622,0.4553 -3.4347,1.1306 -4.9858,1.9933 -1.5804,0.8803 -3.0424,1.9616 -4.3502,3.209 -1.3019,1.2419 -2.4501,2.6536 -3.411,4.2012 -0.4815,0.7746 -1.2354,1.2822 -2.0633,1.4766 -0.8254,0.1939 -1.7259,0.071 -2.504,-0.413 -0.7746,-0.4815 -1.2822,-1.2354 -1.4771,-2.0628 -0.1939,-0.8254 -0.071,-1.7259 0.413,-2.5045 1.25,-2.0125 2.7548,-3.8592 4.4706,-5.4945 1.7047,-1.6247 3.621,-3.0393 5.704,-4.1992 2.0412,-1.1357 4.2384,-2.024 6.5511,-2.6233 2.2567,-0.5847 4.6051,-0.8959 7.0053,-0.8959 3.7696,0 7.375,0.7539 10.6722,2.1197 3.4291,1.4207 6.5072,3.4936 9.0737,6.0605 2.5664,2.5659 4.6398,5.644 6.0605,9.0732 1.3653,3.2972 2.1197,6.9026 2.1197,10.6727 0,1.1749 -0.0745,2.3388 -0.2176,3.485 -0.146,1.1694 -0.3641,2.3151 -0.6492,3.4306 -0.2881,1.1311 -0.6477,2.2376 -1.0717,3.3113 -0.4175,1.0576 -0.9161,2.1127 -1.4882,3.1582z"/>
 </g>
</svg>
